<svg width="240" height="240" viewBox="0 0 240 240" fill="none" xmlns="http://www.w3.org/2000/svg">
<rect width="240" height="240" rx="40" fill="#F5E5C7"/>
<path fill-rule="evenodd" clip-rule="evenodd" d="M87.5006 201H163.691C167.388 201 158 185 156 174C154.462 165.538 153.17 156 157 152C160.83 148 175.309 152 189 149C195.496 147.576 203.691 142 203.691 139C203.691 136 190.359 131.94 186 124C183.082 118.686 184.533 114.508 182 109C179.192 102.896 173.309 100 172 95C171.046 91.3556 172.375 89.1591 172.685 85.4045C174.207 66.9505 171.691 38 171.691 38C171.691 38 159 55 155 65C151 75 150.969 79.3655 143.187 81.576C139.238 82.6977 136.629 82.1563 132.691 81C120.398 77.3913 121 66 117 54C115 48 110.691 38 110.691 38C110.691 38 95.9315 72.2891 98 95C98.8337 104.154 103 118 103 118L95.6906 131.974L110 142C116.069 153.075 107.945 174.523 95.6906 171C91.0786 169.674 88.836 166.888 85.6906 163C83.1619 159.874 81.9367 157.823 80.6906 154C78.7124 147.931 82 138 83.6906 127C84.7585 120.052 85.5938 115.767 83.6906 109C81.9857 102.938 79.8793 99.7018 75.6906 95C71.2213 89.9832 67.8622 87.656 61.6906 85C54.1893 81.7718 41.0716 79.6817 41 81.9683C40.9284 84.255 42 85 44 87C47.1772 90.1772 48.3555 92.1581 49.6906 97C50.9364 101.518 51.0549 104.517 49.6906 109C48.7756 112.007 47.34 113.306 45.889 116.094C42.502 122.603 38.7741 128.808 37.6906 133C35.4433 141.696 35.4297 147.307 37.6906 156C39.3178 162.256 40.7812 165.852 44.6906 171C48.662 176.23 52.0022 178.365 57.4804 181.866L57.6906 182C62.1053 184.822 64.4175 185.027 69 186C72.4592 186.735 74.5041 186.466 78 187C81.937 187.601 86.1226 185.488 88 189C89.4451 191.704 87.5437 193.778 86.8595 196.767C86.4767 198.439 85 201 87.5006 201ZM169 125C168 127 149 121 153 115C157 109 170 123 169 125Z" fill="#E14240"/>
</svg>
