<svg width="309" height="113" viewBox="0 0 309 113" fill="none" xmlns="http://www.w3.org/2000/svg">
<path d="M218.823 0.499908L195.12 0.499146V111.769C203.02 111.877 210.921 111.918 218.823 111.891V91.4272C221.872 88.1732 225.022 84.6982 228.179 81.5752C233.191 88.1982 250.956 111.926 250.956 111.926L279.468 111.907L245.075 65.6202L276.598 32.6042L249 32.5932L218.823 62.5V0.499908Z" fill="#202D3D"/>
<path d="M112.887 0H86.887L58.5 50.5L28 0H0L45.671 70.0314V112H70.416V70.0314L112.887 0Z" fill="#202D3D"/>
<path d="M308.933 32.6132L285.065 32.5932L285.117 111.925H308.933V32.6132Z" fill="#202D3D"/>
<path fill-rule="evenodd" clip-rule="evenodd" d="M142 112.031C165.196 112.031 184 93.2274 184 70.0314C184 46.8355 165.196 28.0314 142 28.0314C118.804 28.0314 100 46.8355 100 70.0314C100 93.2274 118.804 112.031 142 112.031ZM142 90.0313C153.046 90.0313 162 81.077 162 70.0313C162 58.9856 153.046 50.0313 142 50.0313C130.954 50.0313 122 58.9856 122 70.0313C122 81.077 130.954 90.0313 142 90.0313Z" fill="#202D3D"/>
<path d="M309 12.4992C309 19.1266 303.627 24.4992 297 24.4992C290.373 24.4992 285 19.1266 285 12.4992C285 5.87178 290.373 0.499191 297 0.499191C303.627 0.499191 309 5.87178 309 12.4992Z" fill="#202D3D"/>
</svg>
